# xmcd
#
# Track frame offsets: 
#        150
#        13848
#        29298
#        49523
#        75348
#        93452
#        112981
#        130312
#        139575
#        164680
#
# Disc length: 2626 seconds
#
# Revision: 0
# Processed by: cddbd v1.5.2PL0 Copyright (c) Steve Scherf et al.
# Submitted via: ExactAudioCopy v0.95a5
#
DISCID=780a400a
DTITLE=Barry White - Live In Germany (1975)
DYEAR=2006
DGENRE=Soul
TTITLE0=Love's Theme
TTITLE1=Can't Get Enough Of Your Love, Babe
TTITLE2=Never, Never Gonna Give You Up
TTITLE3=I've Found Someone
TTITLE4=Under The Influence Of Love
TTITLE5=It May Be Winter Outside
TTITLE6=I Belong To You
TTITLE7=Rhapsody In White
TTITLE8=I'm Gonna Love You Just A Little Bit More Baby
TTITLE9=You're The First, The Last - My Everything
EXTD=
EXTT0=
EXTT1=
EXTT2=
EXTT3=
EXTT4=
EXTT5=
EXTT6=
EXTT7=
EXTT8=
EXTT9=
PLAYORDER=
